<?xml version="1.0" standalone="no"?>
<!DOCTYPE svg PUBLIC "-//W3C//DTD SVG 20010904//EN"
 "http://www.w3.org/TR/2001/REC-SVG-20010904/DTD/svg10.dtd">
<svg version="1.0" xmlns="http://www.w3.org/2000/svg"
 width="1500.000000pt" height="1687.000000pt" viewBox="0 0 1500.000000 1687.000000"
 preserveAspectRatio="xMidYMid meet">

<g transform="translate(0.000000,1687.000000) scale(0.100000,-0.100000)"
fill="#000000" stroke="none">
<path d="M5400 14995 l-435 -435 -615 0 -615 0 -1178 -1178 -1177 -1177 0
-615 0 -615 -440 -440 -440 -440 0 -1660 0 -1660 440 -440 440 -440 0 -615 0
-615 1178 -1178 1177 -1177 615 0 615 0 435 -435 435 -435 1665 0 1665 0 435
435 435 435 615 0 616 0 1177 1177 1177 1177 0 616 0 615 440 440 440 440 0
1660 0 1660 -440 440 -440 440 0 615 0 615 -1178 1178 -1177 1177 -615 0 -615
0 -435 435 -435 435 -1665 0 -1665 0 -435 -435z m4025 -95 l340 -340 -2258 0
c-1241 0 -2257 3 -2257 7 0 5 150 158 332 340 l333 333 1585 0 1585 0 340
-340z m-4665 -538 c0 -4 -718 -725 -1595 -1602 l-1595 -1595 0 480 0 480 1122
1122 1123 1123 472 0 c260 0 473 -3 473 -8z m6932 -1729 l1738 -1738 0 -2460
0 -2460 -1738 -1738 -1737 -1737 -2455 0 -2455 0 -1737 1737 -1738 1738 0
2460 0 2460 1738 1738 1737 1737 2455 0 2455 0 1737 -1737z m615 615 l1123
-1123 0 -480 0 -480 -1595 1595 c-877 877 -1595 1598 -1595 1602 0 5 213 8
472 8 l473 0 1122 -1122z m-10927 -4813 c0 -1240 -3 -2255 -7 -2255 -5 0 -158
150 -340 332 l-333 333 0 1590 0 1590 332 332 c183 183 336 333 340 333 5 0 8
-1015 8 -2255z m12587 1923 l333 -333 0 -1590 0 -1590 -332 -332 c-183 -183
-336 -333 -340 -333 -5 0 -8 1015 -8 2255 0 1240 3 2255 7 2255 5 0 158 -150
340 -332z m-9207 -7850 c0 -5 -213 -8 -472 -8 l-473 0 -1122 1122 -1123 1123
0 480 0 480 1595 -1595 c877 -877 1595 -1598 1595 -1602z m7548 1115 l-1123
-1123 -472 0 c-260 0 -473 3 -473 7 0 5 717 725 1593 1601 l1592 1592 3 -477
2 -478 -1122 -1122z m-2883 -1653 l-340 -340 -1585 0 -1585 0 -332 332 c-183
183 -333 336 -333 340 0 5 1016 8 2257 8 l2258 0 -340 -340z"/>
<path d="M5495 9506 c-22 -53 -22 -2089 0 -2142 17 -41 42 -43 62 -4 19 37 19
2113 0 2150 -20 39 -45 37 -62 -4z"/>
<path d="M7957 9520 c-61 -16 -132 -56 -167 -96 -49 -56 -64 -99 -64 -184 0
-91 21 -138 89 -198 44 -39 65 -49 231 -112 98 -37 144 -77 144 -127 0 -77
-44 -103 -175 -103 -66 0 -104 6 -161 25 -41 14 -78 25 -82 25 -13 0 -66 -160
-56 -169 18 -17 121 -49 191 -60 135 -21 283 -7 365 34 46 24 96 73 121 120
28 53 30 179 4 247 -27 70 -96 127 -209 173 -221 90 -238 102 -238 160 0 52
33 81 104 90 66 9 133 0 201 -26 27 -10 52 -15 56 -11 11 11 60 154 55 159 -3
3 -35 16 -73 30 -55 21 -90 26 -183 29 -63 2 -132 -1 -153 -6z"/>
<path d="M8895 9512 c-261 -78 -387 -318 -331 -632 36 -200 168 -330 366 -361
127 -19 298 0 402 47 l36 16 -30 87 -30 87 -71 -24 c-101 -35 -231 -36 -302
-4 -106 48 -146 121 -153 274 -5 117 13 187 65 248 59 68 102 85 218 85 84 -1
110 -5 162 -27 l62 -25 31 86 c30 81 30 86 13 99 -73 53 -323 78 -438 44z"/>
<path d="M6941 9509 c-35 -4 -70 -10 -78 -13 -11 -4 -13 -95 -13 -486 l0 -480
110 0 110 0 0 165 0 165 79 0 c44 0 113 7 155 15 142 27 220 75 263 163 25 50
28 68 28 152 0 78 -4 104 -24 148 -41 91 -117 141 -257 167 -81 16 -267 18
-373 4z m362 -197 c49 -28 69 -64 69 -121 0 -100 -47 -133 -199 -139 l-103 -4
0 140 c0 125 2 141 18 146 36 11 186 -4 215 -22z"/>
<path d="M5840 9161 c0 -326 1 -353 21 -417 17 -56 31 -77 78 -124 83 -83 142
-104 296 -104 99 1 130 4 177 23 102 40 171 112 205 215 14 43 17 109 21 404
l4 352 -111 0 -111 0 0 -317 c0 -327 -5 -378 -37 -422 -40 -53 -69 -66 -148
-66 -86 0 -115 16 -155 86 l-25 44 -3 338 -3 337 -105 0 -104 0 0 -349z"/>
<path d="M9757 9412 c-91 -196 -337 -832 -337 -871 0 -7 34 -11 109 -11 l109
0 18 53 c9 28 25 76 36 105 l19 52 194 0 193 0 34 -102 35 -103 116 -3 c64 -1
117 0 117 2 0 10 -113 321 -166 459 -30 78 -92 226 -137 330 l-81 187 -107 0
-106 0 -46 -98z m224 -321 c32 -86 59 -159 59 -163 0 -5 -61 -8 -135 -8 -82 0
-135 4 -135 10 0 5 24 74 54 152 84 224 76 206 88 184 6 -10 37 -89 69 -175z"/>
<path d="M10532 9023 l3 -488 328 -3 327 -2 0 95 0 95 -220 0 -220 0 0 395 0
395 -110 0 -110 0 2 -487z"/>
<path d="M11332 9023 l3 -488 348 -3 347 -2 0 90 0 90 -240 0 -240 0 0 120 0
120 195 0 195 0 0 90 0 90 -195 0 -195 0 0 100 0 100 223 0 222 0 -3 90 -3 90
-330 0 -329 0 2 -487z"/>
</g>
</svg>
